<?xml version="1.0" encoding="utf-8"?>
<!-- Generator: Adobe Illustrator 24.3.0, SVG Export Plug-In . SVG Version: 6.00 Build 0)  -->
<svg version="1.1"
	 id="svg2" xmlns:cc="http://creativecommons.org/ns#" xmlns:dc="http://purl.org/dc/elements/1.1/" xmlns:rdf="http://www.w3.org/1999/02/22-rdf-syntax-ns#" xmlns:svg="http://www.w3.org/2000/svg"
	 xmlns="http://www.w3.org/2000/svg" xmlns:xlink="http://www.w3.org/1999/xlink" x="0px" y="0px" viewBox="0 0 300 300"
	 style="enable-background:new 0 0 300 300;" xml:space="preserve">
<style type="text/css">
	.st0{clip-path:url(#SVGID_2_);}
	.st1{opacity:0.75;clip-path:url(#SVGID_4_);}
	.st2{filter:url(#Adobe_OpacityMaskFilter);}
	.st3{mask:url(#mask32_1_);}
	.st4{fill:#AC1892;}
	.st5{opacity:0.75;clip-path:url(#SVGID_8_);}
	.st6{filter:url(#Adobe_OpacityMaskFilter_2_);}
	.st7{mask:url(#mask78_1_);}
	.st8{opacity:0.75;clip-path:url(#SVGID_12_);}
	.st9{filter:url(#Adobe_OpacityMaskFilter_4_);}
	.st10{mask:url(#mask124_1_);}
</style>
<g id="g10" transform="matrix(1.3333333,0,0,-1.3333333,0,400)">
	<g id="g12">
		<g>
			<defs>
				<rect id="SVGID_1_" x="-36.1" y="38.9" width="296.7" height="296.7"/>
			</defs>
			<clipPath id="SVGID_2_">
				<use xlink:href="#SVGID_1_"  style="overflow:visible;"/>
			</clipPath>
			<g id="g14" class="st0">
				<g id="g20">
					<g id="g22">
					</g>
					<g id="g60">
						<g>
							<defs>
								<rect id="SVGID_3_" x="-10.3" y="101.4" width="264.7" height="226.2"/>
							</defs>
							<clipPath id="SVGID_4_">
								<use xlink:href="#SVGID_3_"  style="overflow:visible;"/>
							</clipPath>
							<g id="g58" class="st1">
								<g id="g56">
									<g id="g48">
									</g>
									<defs>
										<filter id="Adobe_OpacityMaskFilter" filterUnits="userSpaceOnUse" x="22.8" y="-299.3" width="198.5" height="169.7">
											<feColorMatrix  type="matrix" values="1 0 0 0 0  0 1 0 0 0  0 0 1 0 0  0 0 0 1 0"/>
										</filter>
									</defs>
									<mask maskUnits="userSpaceOnUse" x="22.8" y="-299.3" width="198.5" height="169.7" id="mask32_1_">
										<g id="g42_1_" class="st2">
											<g>
												<defs>
													<rect id="SVGID_5_" x="-7.4" y="109.8" width="198.5" height="169.7"/>
												</defs>
												<clipPath id="SVGID_6_">
													<use xlink:href="#SVGID_5_"  style="overflow:visible;"/>
												</clipPath>
												<g id="g40_1_">
													<g id="g38_1_">
														<g id="g36_1_" transform="matrix(267.59999,0,0,228.71999,29.4,72.4)">
															
																<g transform="matrix(4.989576e-04 0 0 5.837752e-04 -4.492294e-02 0.2561)" style="clip-path:url(#SVGID_6_);enable-background:new    ;">
																
																	<image style="overflow:visible;" width="1115" height="953" id="image34_1_" xlink:href="AA6459C.png"  transform="matrix(4.989576e-04 0 0 5.837752e-04 -4.492294e-02 0.2561)">
																</image>
															</g>
														</g>
													</g>
												</g>
											</g>
										</g>
									</mask>
									<g id="g54" class="st3">
										<g id="g52" transform="matrix(267.59999,0,0,228.71999,29.4,72.4)">
											<defs>
												<filter id="Adobe_OpacityMaskFilter_1_" filterUnits="userSpaceOnUse" x="0" y="-1" width="0.7" height="0.7">
													<feColorMatrix  type="matrix" values="1 0 0 0 0  0 1 0 0 0  0 0 1 0 0  0 0 0 1 0"/>
												</filter>
											</defs>
											<mask maskUnits="userSpaceOnUse" x="0" y="-1" width="0.7" height="0.7" id="mask44_1_">
												
													<image style="overflow:visible;filter:url(#Adobe_OpacityMaskFilter_1_);enable-background:new    ;" width="1115" height="953" id="image46_1_" xlink:href="AA6459C.jpg"  transform="matrix(1.864565e-06 0 0 -2.552358e-06 -0.106 0.9885)">
												</image>
											</mask>
											
												<g transform="matrix(6.652768e-04 0 0 -7.783668e-04 -2.454884e-02 0.9922)" style="mask:url(#mask44_1_);enable-background:new    ;">
												
													<image style="overflow:visible;" width="1115" height="953" id="image50" xlink:href="AA6459B.png"  transform="matrix(6.652768e-04 0 0 -7.783668e-04 -2.454884e-02 0.9922)">
												</image>
											</g>
										</g>
									</g>
								</g>
							</g>
						</g>
					</g>
				</g>
				<g id="g62" transform="translate(35.8223,295.021)">
					<path id="path64" class="st4" d="M-8.2-0.2c-0.3-0.2-0.3-0.4-0.1-1.2c0.6-2,1.7-4.3,3.6-7.7c2.6-4.7,3.5-6.6,4.7-10
						c2.4-6.9,4.2-13.7,5.7-21.7c0.6-3,1.1-6.5,2-12.9c0.9-6.3,1.4-9.3,2.1-12.5c1.1-5.4,2.5-9.7,4.5-13.7c0.5-1.1,2.4-4.2,3-5.2
						c4.5-6.5,11.2-12.7,19.4-17.9c5.6-3.5,11-6.3,21.7-11.2c9.4-4.3,12.7-5.9,16.8-8c8-4.2,14.2-8.4,19.3-13.2
						c2.6-2.4,3.7-3.7,6.9-8.5c2.9-4.3,4.2-6,5.9-7.9c3-3.2,6.1-5.4,9.8-6.9c1.2-0.5,4.1-1.2,5.3-1.4c5.9-1,12.4-0.5,20.6,1.5
						c0.7,0.2,1.4,0.4,1.5,0.4c0.2,0.1,0.3,0.5,0.2,0.7c-0.1,0.1-0.4,0.4-0.8,0.7c-3.5,2.2-6.8,5.5-10.7,10.7
						c-1.2,1.6-2.5,3.4-5.1,7.1c-3.1,4.5-4.5,6.3-6.2,8.4c-4.5,5.7-8.8,9.3-13.1,11.3c-4,1.8-8.6,2.4-13.2,1.6
						c-1.8-0.3-4.6-1-5.1-1.3c-0.3-0.2-0.4-0.5-0.2-0.7c0.1-0.2,0.2-0.2,0.9-0.4c5.5-1.8,10-4.1,14.2-7.4c2.9-2.3,5.8-5.4,7.7-8.2
						c0.2-0.3,0.5-0.8,0.7-1c0.2-0.3,0.2-0.3-0.3,0.3c-2,2.3-4.7,4.7-7.4,6.5c-5.2,3.5-12.9,6.8-22.1,9.4c-0.5,0.1-0.8,0.3-0.8,0.3
						c0,0.1,2.2,1.9,3.2,2.6c2.6,2,4.4,3.2,7.6,5.2c3.4,2,5.6,3.2,8.5,4.5c12.8,5.7,25.3,7.4,35.6,4.7l1.3-0.3l-1,0.1
						c-6.7,0.7-13.8-0.3-22.9-3.5c-3.3-1.1-5.9-2.1-11.7-4.5c-4-1.7-6.1-2.5-7.3-3c-0.5-0.2-1-0.4-1.1-0.4c-0.2-0.1-0.3-0.5-0.2-0.7
						c0.1-0.2,0.2-0.2,0.6-0.3c0.7-0.1,1.7-0.2,3.8-0.3c3.2-0.1,4.3-0.3,6.9-0.8c0.8-0.2,5.3-1.3,10.1-2.6c4.8-1.2,9.2-2.4,9.8-2.5
						c6.8-1.5,11.4-1.9,16.3-1.6c4.8,0.3,9.3,1.5,13.6,3.7c1.5,0.7,4.6,2.7,6,3.6c5.6,4.1,10.9,9.9,16.2,17.4
						c1.4,2.1,2.4,3.5,2.4,3.7c0,0.2-0.1,0.6-0.3,0.6c-0.3,0.1-1.9,0.1-3.3,0c-0.8-0.1-2.4-0.2-3.5-0.4c-3.7-0.5-5-0.6-7.5-0.5
						c-4.7,0.1-9.6,0.7-14.6,1.6c-2.8,0.5-5.1,1-10.4,2.2c-5.6,1.3-8.2,1.8-11,2.2c-7.3,0.9-13.2-0.2-20-3.5c-2-1-5.4-3-7.7-4.7
						c-6.2-4.5-13.3-11-21.2-19.5c-0.6-0.7-1.2-1.3-1.2-1.3c-0.1,0,0.1,2.2,0.2,3.3c0.2,1.6,0.4,2.6,0.8,4.3
						c1.3,5.2,3.9,10.2,8.4,16.7c1.2,1.6,2,2.8,4.3,5.9c4.1,5.5,5.5,7.3,7.3,10.2c1.9,2.9,3.3,5.4,4.4,7.9c4.5,10,4.8,19.8,0.9,31.1
						c-1.7,4.9-3.7,9-7.1,14.8c-1.8,3.1-2.2,3.6-4,6.2c-1.5,2.1-1.8,2.6-2,2.6c-0.3,0.1-0.6-0.1-0.6-0.3c0-0.1-0.1-0.5-0.2-0.9
						c-0.8-4.3-2.8-9.5-5.8-15c-2.3-4.3-4.2-7.3-11.2-17.7c-5.7-8.5-9-14.2-11.1-19.4c-3.8-8.9-4.5-16.6-2.3-24.1
						c1.3-4.5,3.6-8.8,7-13.1c0.6-0.8,0.8-1,1.2-0.9c0.4,0.1,0.4,0.3,0.3,1.5c-0.3,5.6,0,11.1,0.9,16.3c1.5,7.9,4.5,15.2,8.9,21.4
						c0.9,1.2,2.6,3.4,2.7,3.5c0,0-0.3-0.5-0.6-1.1c-2.1-3.5-3.7-6.9-4.9-10.7c-0.5-1.4-1.3-4.8-1.6-6.3c-1.3-6.6-1.7-14.2-1.4-23.7
						c0.1-1.6,0.5-8,0.6-9.4l0.1-0.8l-0.4,0.2c-2.4,1.2-5.3,3-8.2,4.8c-2.9,1.9-5,3.4-7.6,5.4c-8.8,6.9-16.6,14.9-22.5,23.4
						c-2,2.8-4.5,7-5.8,9.5c-3.9,7.7-6,14.5-6.8,21.8c-0.1,1.1-0.3,3.8-0.2,3.9c0,0.1,0,0.1,0.1,0c0-0.1,0.2-0.9,0.4-1.8
						c0.8-4.1,2.1-7.8,4.3-12.3c0.7-1.6,3.8-6.9,4.9-8.5C38-77.2,42.6-82.6,53-93.4c4-4.2,5.4-5.7,7.4-7.8c1.2-1.4,1.4-1.5,1.6-1.5
						c0.1,0,0.3,0,0.4,0c0.3,0.2,0.3,0.5,0.1,1.3c-0.3,1.2-0.6,2.2-1.5,4.9c-1.6,4.8-1.9,6.1-2.7,12.1c-0.4,2.8-0.7,5.7-1.3,11.3
						c-1.2,10.8-1.6,14.3-2.6,19.3C53-46.9,51.2-41.1,49-36.2c-3.2,6.8-7.3,12.3-13,17.2C28.4-12.4,18.4-7.3,5.1-3.3
						C2-2.4-3.6-1-7-0.3C-7.9-0.1-8.1-0.1-8.2-0.2"/>
				</g>
				<g id="g66">
					<g id="g68">
					</g>
					<g id="g106">
						<g>
							<defs>
								<rect id="SVGID_7_" x="-13.4" y="45.8" width="160.2" height="221.9"/>
							</defs>
							<clipPath id="SVGID_8_">
								<use xlink:href="#SVGID_7_"  style="overflow:visible;"/>
							</clipPath>
							<g id="g104" class="st5">
								<g id="g102">
									<g id="g94">
									</g>
									<defs>
										<filter id="Adobe_OpacityMaskFilter_2_" filterUnits="userSpaceOnUse" x="6.6" y="-240" width="120.2" height="166.5">
											<feColorMatrix  type="matrix" values="1 0 0 0 0  0 1 0 0 0  0 0 1 0 0  0 0 0 1 0"/>
										</filter>
									</defs>
									<mask maskUnits="userSpaceOnUse" x="6.6" y="-240" width="120.2" height="166.5" id="mask78_1_">
										<g id="g88_1_" class="st6">
											<g>
												<defs>
													<rect id="SVGID_9_" x="-9.8" y="154.6" width="120.2" height="166.5"/>
												</defs>
												<clipPath id="SVGID_10_">
													<use xlink:href="#SVGID_9_"  style="overflow:visible;"/>
												</clipPath>
												<g id="g86_1_">
													<g id="g84_1_">
														<g id="g82_1_" transform="matrix(162,0,0,224.39999,7.5599999,-3.199998)">
															
																<g transform="matrix(8.242041e-04 0 0 5.950137e-04 -1.439379e-02 0.7961)" style="clip-path:url(#SVGID_10_);enable-background:new    ;">
																
																	<image style="overflow:visible;" width="675" height="935" id="image80_1_" xlink:href="AA645A4.png"  transform="matrix(8.242041e-04 0 0 5.950137e-04 -1.439379e-02 0.7961)">
																</image>
															</g>
														</g>
													</g>
												</g>
											</g>
										</g>
									</mask>
									<g id="g100" class="st7">
										<g id="g98" transform="matrix(162,0,0,224.39999,7.5599999,-3.199998)">
											<defs>
												<filter id="Adobe_OpacityMaskFilter_3_" filterUnits="userSpaceOnUse" x="0" y="-1.1" width="0.7" height="0.7">
													<feColorMatrix  type="matrix" values="1 0 0 0 0  0 1 0 0 0  0 0 1 0 0  0 0 0 1 0"/>
												</filter>
											</defs>
											<mask maskUnits="userSpaceOnUse" x="0" y="-1.1" width="0.7" height="0.7" id="mask90_1_">
												
													<image style="overflow:visible;filter:url(#Adobe_OpacityMaskFilter_3_);enable-background:new    ;" width="675" height="935" id="image92_1_" xlink:href="AA645A4.jpg"  transform="matrix(5.087679e-06 0 0 -2.651576e-06 -4.035622e-02 1.3445)">
												</image>
											</mask>
											
												<g transform="matrix(1.098939e-03 0 0 -7.933515e-04 -5.739646e-03 1.084)" style="mask:url(#mask90_1_);enable-background:new    ;">
												
													<image style="overflow:visible;" width="675" height="935" id="image96" xlink:href="AA645A5.png"  transform="matrix(1.098939e-03 0 0 -7.933515e-04 -5.739646e-03 1.084)">
												</image>
											</g>
										</g>
									</g>
								</g>
							</g>
						</g>
					</g>
				</g>
				<g id="g108" transform="translate(44.0273,215.1787)">
					<path id="path110" class="st4" d="M-10.3,20.4c0,0,0-0.4-0.2-1.7c0-0.3-0.2-0.7-0.3-1.1c-0.5-1.1-1-2.5-1.1-3.5
						c-0.1-1-0.1-3.8,0.1-6.3c0.3-4.7,1.3-9.6,2.8-13.5c0.8-1.9,1.3-3.2,2.6-5.5c0.5-0.9,1.1-2.1,1.3-2.5c0.6-1.1,2.2-3.9,3-5.2
						C3-26.6,10.2-33.8,20.7-41.6c4.5-3.3,9-6.4,18.4-12.4c8.5-5.5,11.9-7.8,15.6-10.4c10.5-7.5,17.3-14,21-20.3l0.8-1.4l0.4-1.4
						c1-3.7,1.4-6.6,1.4-9.4c-0.1-7-3.8-14.1-11.8-22.4c-2-2.1-3.9-3.9-6.9-6.7c-1.9-1.8-2.3-2.2-4.3-4.7c-2.1-2.7-4.1-4.9-4.9-5.6
						c-0.4-0.3-0.7-0.6-0.7-0.6c0,0,0.1,0.2,0.3,0.3c0.7,0.8,2,2.6,2.9,4c4.9,7.5,7.2,15.9,6.5,24.2c-0.4,4.5-1.5,8.4-3.4,12.1
						c-0.5,0.9-0.7,1.4-0.8,1.8c-0.2,0.8-1.1,2.4-1.7,2.9c-1.1,1.2-2.8,2.2-4.5,2.9c-4.7,1.8-10.8,1.5-16.9-0.8
						c-2.3-0.9-3.9-1.7-6.3-3.1c-2.3-1.4-3.1-2-8-5.8c-4.8-3.7-6-4.6-8.7-6.2c-1.7-1-2.2-1.3-2.9-1.6c-3.3-1.4-5.4-1.5-7.7-0.4
						c-0.4,0.2-1,0.5-1.3,0.6c-0.3,0.2-0.9,0.4-1.2,0.5c-0.5,0.1-0.6,0.2-0.7,0.4c-0.2,0.4-0.6,1.3-0.7,2c-0.2,0.8-0.2,1.8-0.2,3.4
						c0,1.9-0.1,2.9-0.4,3.4c-0.1,0.1-0.1,0.2,0,0.4c0.2,0.4,0.1,0.7-0.2,1.1c-0.3,0.5-0.9,0.8-2,1.2c-0.5,0.2-1.3,0.5-1.7,0.6
						c-0.9,0.4-1.6,0.6-2,0.5l-0.3,0l-0.2,0.3c-0.2,0.4-0.4,1-0.4,1.4c0,0.8,0.3,2,0.8,3c0.1,0.2,0.2,0.4,0.2,0.5
						c0,0-0.1,0.1-0.2,0.1l-0.2,0l0.1,0.1c0.1,0.2,0.1,0.6,0,0.8c-0.3,0.4-0.5,0.6-2.8,1.2c-0.7,0.2-1.3,0.2-1.5,0.1
						c-0.1-0.1-0.1,0-0.3,0.2c-0.3,0.6-0.5,1.5-0.4,2.3c0,0.2,0.2,1.1,0.4,1.9c0.4,1.5,0.5,2.1,0.2,2.7c-0.1,0.2-0.1,0.3,0,0.5
						c0.1,0.1,0.1,0.3,0.1,0.5c0,0.6-0.7,1.1-1.7,1.3c-0.5,0.1-1,0.1-2.6,0.1c-1.8-0.1-3,0.1-4.3,0.6c-1,0.4-1.8,0.6-2.1,0.5l-0.2,0
						l-0.3,0.5c-0.9,1.7-0.6,4.1,0.6,7.1c0.2,0.4,0.6,1.4,1,2.2c2.6,5.5,4,9.1,4.8,12.1c0.6,2.5,0.7,4.4,0.3,5.6
						c-0.1,0.3-0.1,0.4-0.1,0.6c0.2,0.8-0.3,1.4-1.3,1.8c-0.8,0.3-1.1,0.2-3.9-1.3c-2.2-1.2-2.6-1.3-4.1-1.9c-1-0.4-1.1-0.4-1.4-0.3
						c-0.3,0.1-0.9,0.3-1,0.4c0,0,0.1,0,0.3,0.1c0.9,0,2.2,0.6,4.1,1.8c1.8,1.1,3.4,2.3,4.8,3.7l0.5,0.5l-0.1,1.5
						c-0.1,0.8-0.2,2.7-0.4,4.1c-0.7,7.8-0.9,11.9-0.7,16.8c0.4,11.9,3.6,22.7,9.6,32.9c0.7,1.2,2.3,3.6,3,4.7
						C-10.9,19.6-10.4,20.4-10.3,20.4"/>
				</g>
				<g id="g112">
					<g id="g114">
					</g>
					<g id="g152">
						<g>
							<defs>
								<rect id="SVGID_11_" x="24.3" y="97.3" width="132.5" height="123.4"/>
							</defs>
							<clipPath id="SVGID_12_">
								<use xlink:href="#SVGID_11_"  style="overflow:visible;"/>
							</clipPath>
							<g id="g150" class="st8">
								<g id="g148">
									<g id="g140">
									</g>
									<defs>
										<filter id="Adobe_OpacityMaskFilter_4_" filterUnits="userSpaceOnUse" x="40.8" y="-205.3" width="99.3" height="92.6">
											<feColorMatrix  type="matrix" values="1 0 0 0 0  0 1 0 0 0  0 0 1 0 0  0 0 0 1 0"/>
										</filter>
									</defs>
									<mask maskUnits="userSpaceOnUse" x="40.8" y="-205.3" width="99.3" height="92.6" id="mask124_1_">
										<g id="g134_1_" class="st9">
											<g>
												<defs>
													<rect id="SVGID_13_" x="18.4" y="189.9" width="99.3" height="92.6"/>
												</defs>
												<clipPath id="SVGID_14_">
													<use xlink:href="#SVGID_13_"  style="overflow:visible;"/>
												</clipPath>
												<g id="g132_1_">
													<g id="g130_1_">
														<g id="g128_1_" transform="matrix(133.92,0,0,124.8,53.639999,49.599997)">
															
																<g transform="matrix(9.970211e-04 0 0 1.069880e-03 -0.1701 1.2169)" style="clip-path:url(#SVGID_14_);enable-background:new    ;">
																
																	<image style="overflow:visible;" width="558" height="520" id="image126_1_" xlink:href="AA645AB.png"  transform="matrix(9.970211e-04 0 0 1.069880e-03 -0.1701 1.2169)">
																</image>
															</g>
														</g>
													</g>
												</g>
											</g>
										</g>
									</mask>
									<g id="g146" class="st10">
										<g id="g144" transform="matrix(133.92,0,0,124.8,53.639999,49.599997)">
											<defs>
												<filter id="Adobe_OpacityMaskFilter_5_" filterUnits="userSpaceOnUse" x="-0.1" y="-1.2" width="0.7" height="0.7">
													<feColorMatrix  type="matrix" values="1 0 0 0 0  0 1 0 0 0  0 0 1 0 0  0 0 0 1 0"/>
												</filter>
											</defs>
											<mask maskUnits="userSpaceOnUse" x="-0.1" y="-1.2" width="0.7" height="0.7" id="mask136_1_">
												
													<image style="overflow:visible;filter:url(#Adobe_OpacityMaskFilter_5_);enable-background:new    ;" width="558" height="520" id="image138_1_" xlink:href="AA645AC.jpg"  transform="matrix(7.444900e-06 0 0 -8.572759e-06 -0.3929 1.9944)">
												</image>
											</mask>
											
												<g transform="matrix(1.329361e-03 0 0 -1.426507e-03 -9.579176e-02 1.2479)" style="mask:url(#mask136_1_);enable-background:new    ;">
												
													<image style="overflow:visible;" width="558" height="520" id="image142" xlink:href="AA645AC.png"  transform="matrix(1.329361e-03 0 0 -1.426507e-03 -9.579176e-02 1.2479)">
												</image>
											</g>
										</g>
									</g>
								</g>
							</g>
						</g>
					</g>
				</g>
				<g id="g154" transform="translate(59.8721,167.6196)">
					<path id="path156" class="st4" d="M-14.4,32.7c0-0.2,0-0.3,0.4-1c1.1-1.8,3.2-4.6,5.2-6.8c5.5-6.2,12.9-12.4,23.7-20
						c3.2-2.3,4.9-3.4,14.1-9.5c13-8.7,19.6-13.7,25.1-18.9c8.6-8.1,13.3-15.9,14.2-23.7c0-0.3,0.1-1,0.1-1.6
						c0.1-1.1,0.2-1.4,0.5-1.5c0.3-0.1,0.5,0.1,1,1c5.8,10.3,7.3,19.1,4.6,26.8c-0.6,1.7-0.8,2.2-2,4.3c-1,1.7-1.2,2.1-1.8,2.8
						c-2,2.6-4.6,5.1-7.6,7.4c-3.2,2.5-7.7,5.2-12.5,7.7c-5,2.6-10.2,4.9-21.5,9.7C15.4,15.2,9.5,17.9,3.3,21.3
						c-6.6,3.6-12.3,7.5-16.2,11c-0.4,0.3-0.8,0.7-0.9,0.7C-14.1,33.1-14.4,33-14.4,32.7"/>
				</g>
			</g>
		</g>
	</g>
</g>
</svg>
